{
    "accessors" : [
        {
            "bufferView" : 0, 
            "componentType" : 5121, 
            "count" : 246, 
            "max" : [
                169
            ], 
            "min" : [
                0
            ], 
            "type" : "SCALAR"
        }, 
        {
            "bufferView" : 1, 
            "componentType" : 5126, 
            "count" : 170, 
            "max" : [
                0.40000003576278687, 
                0.75, 
                0.5000000596046448
            ], 
            "min" : [
                -0.4000000059604645, 
                -1.1175870895385742e-08, 
                -0.25000008940696716
            ], 
            "type" : "VEC3"
        }, 
        {
            "bufferView" : 2, 
            "componentType" : 5126, 
            "count" : 170, 
            "max" : [
                1.0, 
                1.0, 
                1.0
            ], 
            "min" : [
                -1.0, 
                -1.0, 
                -1.0
            ], 
            "type" : "VEC3"
        }, 
        {
            "bufferView" : 3, 
            "componentType" : 5126, 
            "count" : 170, 
            "max" : [
                1.0, 
                1.0, 
                7.469451475117239e-07, 
                1.0
            ], 
            "min" : [
                -1.0, 
                -1.0, 
                -4.3425177409517346e-07, 
                -1.0
            ], 
            "type" : "VEC4"
        }, 
        {
            "bufferView" : 4, 
            "componentType" : 5126, 
            "count" : 170, 
            "max" : [
                1.0, 
                1.0
            ], 
            "min" : [
                0.0, 
                0.0
            ], 
            "type" : "VEC2"
        }, 
        {
            "bufferView" : 5, 
            "componentType" : 5123, 
            "count" : 170, 
            "max" : [
                1, 
                0, 
                0, 
                0
            ], 
            "min" : [
                0, 
                0, 
                0, 
                0
            ], 
            "type" : "VEC4"
        }, 
        {
            "bufferView" : 6, 
            "componentType" : 5126, 
            "count" : 170, 
            "max" : [
                1.0, 
                0.0, 
                0.0, 
                0.0
            ], 
            "min" : [
                1.0, 
                0.0, 
                0.0, 
                0.0
            ], 
            "type" : "VEC4"
        }, 
        {
            "bufferView" : 7, 
            "componentType" : 5126, 
            "count" : 2, 
            "max" : [
                1.0, 
                0.0, 
                0.0, 
                0.0, 
                0.0, 
                0.0, 
                1.0, 
                0.0, 
                0.0, 
                -1.0, 
                0.0, 
                0.0, 
                0.0, 
                0.0, 
                0.0, 
                1.0
            ], 
            "min" : [
                1.0, 
                0.0, 
                0.0, 
                0.0, 
                0.0, 
                0.0, 
                1.0, 
                0.0, 
                0.0, 
                -1.0, 
                0.0, 
                0.0, 
                0.0, 
                0.0, 
                -0.5, 
                1.0
            ], 
            "type" : "MAT4"
        }
    ], 
    "asset" : {
        "generator" : "Khronos Blender glTF 2.0 exporter", 
        "version" : "2.0"
    }, 
    "bufferViews" : [
        {
            "buffer" : 0, 
            "byteLength" : 246, 
            "byteOffset" : 0, 
            "target" : 34963
        }, 
        {
            "buffer" : 0, 
            "byteLength" : 2040, 
            "byteOffset" : 248, 
            "target" : 34962
        }, 
        {
            "buffer" : 0, 
            "byteLength" : 2040, 
            "byteOffset" : 2288, 
            "target" : 34962
        }, 
        {
            "buffer" : 0, 
            "byteLength" : 2720, 
            "byteOffset" : 4328, 
            "target" : 34962
        }, 
        {
            "buffer" : 0, 
            "byteLength" : 1360, 
            "byteOffset" : 7048, 
            "target" : 34962
        }, 
        {
            "buffer" : 0, 
            "byteLength" : 1360, 
            "byteOffset" : 8408, 
            "target" : 34962
        }, 
        {
            "buffer" : 0, 
            "byteLength" : 2720, 
            "byteOffset" : 9768, 
            "target" : 34962
        }, 
        {
            "buffer" : 0, 
            "byteLength" : 128, 
            "byteOffset" : 12488
        }
    ], 
    "buffers" : [
        {
            "byteLength" : 12616, 
            "uri" : "baseturret02.bin"
        }
    ], 
    "meshes" : [
        {
            "name" : "Cube", 
            "primitives" : [
                {
                    "attributes" : {
                        "JOINTS_0" : 5, 
                        "NORMAL" : 2, 
                        "POSITION" : 1, 
                        "TANGENT" : 3, 
                        "TEXCOORD_0" : 4, 
                        "WEIGHTS_0" : 6
                    }, 
                    "indices" : 0
                }
            ]
        }
    ], 
    "nodes" : [
        {
            "children" : [
                1, 
                2
            ], 
            "name" : "Armature"
        }, 
        {
            "mesh" : 0, 
            "name" : "Cube", 
            "skin" : 0
        }, 
        {
            "children" : [
                3
            ], 
            "name" : "Armature_Base", 
            "rotation" : [
                -0.7071068286895752, 
                0.0, 
                0.0, 
                0.7071068286895752
            ]
        }, 
        {
            "name" : "Armature_turret", 
            "translation" : [
                0.0, 
                0.0, 
                0.5
            ]
        }
    ], 
    "scene" : 0, 
    "scenes" : [
        {
            "name" : "Scene", 
            "nodes" : [
                0
            ]
        }
    ], 
    "skins" : [
        {
            "inverseBindMatrices" : 7, 
            "joints" : [
                2, 
                3
            ], 
            "skeleton" : 0
        }
    ]
}
