{
    "accessors" : [
        {
            "bufferView" : 0, 
            "componentType" : 5121, 
            "count" : 42, 
            "max" : [
                41
            ], 
            "min" : [
                0
            ], 
            "type" : "SCALAR"
        }, 
        {
            "bufferView" : 1, 
            "componentType" : 5126, 
            "count" : 42, 
            "max" : [
                1.0000004768371582, 
                2.0, 
                1.9999998807907104
            ], 
            "min" : [
                -1.0000003576278687, 
                0.0, 
                -1.0000003576278687
            ], 
            "type" : "VEC3"
        }, 
        {
            "bufferView" : 2, 
            "componentType" : 5126, 
            "count" : 42, 
            "max" : [
                1.0, 
                1.0, 
                0.70710688829422
            ], 
            "min" : [
                -1.0, 
                -1.0, 
                -1.0
            ], 
            "type" : "VEC3"
        }, 
        {
            "bufferView" : 3, 
            "componentType" : 5126, 
            "count" : 42, 
            "max" : [
                1.0, 
                1.0, 
                2.6822084464583895e-07, 
                1.0
            ], 
            "min" : [
                -1.0, 
                -1.0, 
                -4.206288792829582e-07, 
                1.0
            ], 
            "type" : "VEC4"
        }, 
        {
            "bufferView" : 4, 
            "componentType" : 5126, 
            "count" : 42, 
            "max" : [
                1.0, 
                1.0
            ], 
            "min" : [
                0.0, 
                0.0
            ], 
            "type" : "VEC2"
        }, 
        {
            "bufferView" : 5, 
            "componentType" : 5123, 
            "count" : 42, 
            "max" : [
                1, 
                0, 
                0, 
                0
            ], 
            "min" : [
                1, 
                0, 
                0, 
                0
            ], 
            "type" : "VEC4"
        }, 
        {
            "bufferView" : 6, 
            "componentType" : 5126, 
            "count" : 42, 
            "max" : [
                1.0, 
                0.0, 
                0.0, 
                0.0
            ], 
            "min" : [
                1.0, 
                0.0, 
                0.0, 
                0.0
            ], 
            "type" : "VEC4"
        }, 
        {
            "bufferView" : 7, 
            "componentType" : 5126, 
            "count" : 2, 
            "max" : [
                1.0, 
                0.0, 
                0.0, 
                0.0, 
                0.0, 
                0.0, 
                1.0, 
                0.0, 
                0.0, 
                -1.0, 
                0.0, 
                0.0, 
                0.0, 
                0.0, 
                0.0, 
                1.0
            ], 
            "min" : [
                1.0, 
                0.0, 
                0.0, 
                0.0, 
                0.0, 
                0.0, 
                1.0, 
                0.0, 
                0.0, 
                -1.0, 
                0.0, 
                0.0, 
                0.0, 
                0.0, 
                -1.0, 
                1.0
            ], 
            "type" : "MAT4"
        }
    ], 
    "asset" : {
        "generator" : "Khronos Blender glTF 2.0 exporter", 
        "version" : "2.0"
    }, 
    "bufferViews" : [
        {
            "buffer" : 0, 
            "byteLength" : 42, 
            "byteOffset" : 0, 
            "target" : 34963
        }, 
        {
            "buffer" : 0, 
            "byteLength" : 504, 
            "byteOffset" : 44, 
            "target" : 34962
        }, 
        {
            "buffer" : 0, 
            "byteLength" : 504, 
            "byteOffset" : 548, 
            "target" : 34962
        }, 
        {
            "buffer" : 0, 
            "byteLength" : 672, 
            "byteOffset" : 1052, 
            "target" : 34962
        }, 
        {
            "buffer" : 0, 
            "byteLength" : 336, 
            "byteOffset" : 1724, 
            "target" : 34962
        }, 
        {
            "buffer" : 0, 
            "byteLength" : 336, 
            "byteOffset" : 2060, 
            "target" : 34962
        }, 
        {
            "buffer" : 0, 
            "byteLength" : 672, 
            "byteOffset" : 2396, 
            "target" : 34962
        }, 
        {
            "buffer" : 0, 
            "byteLength" : 128, 
            "byteOffset" : 3068
        }
    ], 
    "buffers" : [
        {
            "byteLength" : 3196, 
            "uri" : "baseturret01.bin"
        }
    ], 
    "meshes" : [
        {
            "name" : "Cube", 
            "primitives" : [
                {
                    "attributes" : {
                        "JOINTS_0" : 5, 
                        "NORMAL" : 2, 
                        "POSITION" : 1, 
                        "TANGENT" : 3, 
                        "TEXCOORD_0" : 4, 
                        "WEIGHTS_0" : 6
                    }, 
                    "indices" : 0
                }
            ]
        }
    ], 
    "nodes" : [
        {
            "children" : [
                1, 
                2
            ], 
            "name" : "Armature"
        }, 
        {
            "mesh" : 0, 
            "name" : "Cube", 
            "skin" : 0
        }, 
        {
            "children" : [
                3
            ], 
            "name" : "Armature_Base", 
            "rotation" : [
                -0.7071068286895752, 
                0.0, 
                0.0, 
                0.7071068286895752
            ]
        }, 
        {
            "name" : "Armature_turret", 
            "translation" : [
                0.0, 
                0.0, 
                1.0
            ]
        }
    ], 
    "scene" : 0, 
    "scenes" : [
        {
            "name" : "Scene", 
            "nodes" : [
                0
            ]
        }
    ], 
    "skins" : [
        {
            "inverseBindMatrices" : 7, 
            "joints" : [
                2, 
                3
            ], 
            "skeleton" : 0
        }
    ]
}
